<?xml version="1.0" encoding="UTF-8" standalone="no"?>
<svg
   xmlns:dc="http://purl.org/dc/elements/1.1/"
   xmlns:cc="http://creativecommons.org/ns#"
   xmlns:rdf="http://www.w3.org/1999/02/22-rdf-syntax-ns#"
   xmlns:svg="http://www.w3.org/2000/svg"
   xmlns="http://www.w3.org/2000/svg"
   xmlns:sodipodi="http://sodipodi.sourceforge.net/DTD/sodipodi-0.dtd"
   xmlns:inkscape="http://www.inkscape.org/namespaces/inkscape"
   inkscape:export-ydpi="400"
   inkscape:export-xdpi="400"
   inkscape:export-filename="/home/pfitzseb/Documents/Git/juliarun/scripts/juliahub-logo-small.png"
   viewBox="0 0 72.000002 71.999997"
   version="1.1"
   id="svg14"
   sodipodi:docname="juliahub-logo-small.svg"
   width="72"
   height="72"
   inkscape:version="1.0 (4035a4fb49, 2020-05-01)">
  <metadata
     id="metadata18">
    <rdf:RDF>
      <cc:Work
         rdf:about="">
        <dc:format>image/svg+xml</dc:format>
        <dc:type
           rdf:resource="http://purl.org/dc/dcmitype/StillImage" />
        <dc:title>Asset 1</dc:title>
      </cc:Work>
    </rdf:RDF>
  </metadata>
  <sodipodi:namedview
     inkscape:document-rotation="0"
     pagecolor="#ffffff"
     bordercolor="#666666"
     borderopacity="1"
     objecttolerance="10"
     gridtolerance="10"
     guidetolerance="10"
     inkscape:pageopacity="0"
     inkscape:pageshadow="2"
     inkscape:window-width="2560"
     inkscape:window-height="1410"
     id="namedview16"
     showgrid="false"
     inkscape:zoom="10.224951"
     inkscape:cx="30.850337"
     inkscape:cy="22.642524"
     inkscape:window-x="0"
     inkscape:window-y="30"
     inkscape:window-maximized="1"
     inkscape:current-layer="g845" />
  <defs
     id="defs4">
    <marker
       inkscape:isstock="true"
       style="overflow:visible"
       id="Arrow1Lstart"
       refX="0.0"
       refY="0.0"
       orient="auto"
       inkscape:stockid="Arrow1Lstart">
      <path
         transform="scale(0.8) translate(12.5,0)"
         style="fill-rule:evenodd;stroke:#eeeeee;stroke-width:1pt;stroke-opacity:1;fill:#000000;fill-opacity:1"
         d="M 0.0,0.0 L 5.0,-5.0 L -12.5,0.0 L 5.0,5.0 L 0.0,0.0 z "
         id="path848" />
    </marker>
    <style
       id="style2">.cls-1{fill:#333333;}</style>
  </defs>
  <title
     id="title6">Asset 1</title>
  <g
     style="stroke:#000000;stroke-opacity:1"
     id="Layer_2"
     data-name="Layer 2"
     transform="matrix(2.6518993,0,0,2.6518993,3.3317396,12.119715)">
    <g
       style="stroke:#000000;stroke-opacity:1"
       id="Layer_1-2"
       data-name="Layer 1">
      <g
         style="stroke:none;stroke-opacity:1"
         id="g845">
        <path
           transform="matrix(0.37708823,0,0,0.37708823,-1.2563598,-4.5702018)"
           d="M 20.490234 12.119141 L 20.490234 17.822266 L 25.501953 18.802734 L 25.501953 46.339844 A 7.9556979 7.9556979 0 0 1 23.699219 50.652344 A 5.7811405 5.7811405 0 0 1 19.242188 52.693359 A 6.6562672 6.6562672 0 0 1 14.363281 50.757812 A 7.2131661 7.2131661 0 0 1 12.585938 45.453125 L 3.4121094 45.453125 L 3.4121094 45.640625 A 12.596522 12.596522 0 0 0 7.5488281 56.248047 A 17.661649 17.661649 0 0 0 19.242188 59.853516 A 16.123548 16.123548 0 0 0 30.408203 55.929688 A 13.763357 13.763357 0 0 0 34.863281 45.109375 L 34.863281 39.931641 L 34.941406 39.673828 L 54.167969 39.673828 L 54.167969 52.613281 L 49.130859 53.595703 L 49.130859 59.244141 L 68.648438 59.244141 L 68.648438 53.595703 L 63.609375 52.613281 L 63.609375 18.802734 L 68.648438 17.822266 L 68.648438 12.119141 L 49.130859 12.119141 L 49.130859 17.822266 L 54.167969 18.802734 L 54.167969 32.380859 L 34.941406 32.380859 L 34.941406 18.802734 L 40.007812 17.822266 L 40.007812 12.119141 L 39.927734 12.119141 L 20.490234 12.119141 z "
           style="stroke:#eeeeee;stroke-width:1.1414173;stroke-opacity:1;stroke-miterlimit:4;stroke-dasharray:none;stroke-linejoin:miter;fill:#333333;fill-opacity:1"
           id="path8" />
      </g>
    </g>
  </g>
</svg>
